<?xml version="1.0" encoding="UTF-8"?>
<!DOCTYPE svg PUBLIC "-//W3C//DTD SVG 1.1//EN" "http://www.w3.org/Graphics/SVG/1.1/DTD/svg11.dtd">
<!-- Creator: CorelDRAW 2019 (64 Bit) -->
<svg xmlns="http://www.w3.org/2000/svg" xml:space="preserve" width="266.168mm" height="142.197mm" version="1.1" style="shape-rendering:geometricPrecision; text-rendering:geometricPrecision; image-rendering:optimizeQuality; fill-rule:evenodd; clip-rule:evenodd"
viewBox="0 0 3228.66 1724.87"
 xmlns:xlink="http://www.w3.org/1999/xlink">
 <defs>
  <style type="text/css">
   <![CDATA[
    .fil1 {fill:#ECE1CF}
    .fil0 {fill:#ECE1CF}
   ]]>
  </style>
 </defs>
 <g id="Camada_x0020_1">
  <metadata id="CorelCorpID_0Corel-Layer"/>
  <g id="_2163348164320">
   <path class="fil0" d="M1544.17 507.18c-15.81,-41.81 -55.1,-68.41 -113.92,-68.03 -30.06,0.2 -54.86,7.43 -85.29,1.05 -23.03,-4.83 -46.71,-20.74 -53.56,-35.59 10.92,5.68 17.22,11.93 31.99,16.89 14.61,4.9 28.34,6.6 44.56,5.73 47.06,-2.54 109.13,-25.35 166.03,14.66 8.3,5.83 22.2,15.86 19.63,27.07 -1.13,4.92 -8.64,36.63 -9.44,38.21zm54.6 -286.76c22.06,-5.79 33.94,20.23 35.6,41.02 1.74,21.71 -8.77,49.45 -25.19,52.22 -41.66,7.04 -50.06,-82.83 -10.41,-93.24zm-36.65 227.95c-4.68,-6.26 -7.08,-18.48 -10.59,-25.87 -4.32,-9.1 -7.48,-15.56 -12.66,-23.94 -114.75,-186.01 1.93,-203.12 42.96,-330.12 3.03,-9.37 4.02,-18.13 7.22,-26.67 2.56,37.81 -18.16,82.86 -31.99,111.87 -15.65,32.82 -38.05,64.34 -36.08,109.71 2.51,57.91 32.04,80.94 62.56,119.86 20.06,25.58 4.27,17.81 -21.41,65.15zm-21.71 -16.28c-9.77,-4 -15.49,-9.07 -28.3,-14.15 -11.37,-4.51 -20.98,-6.68 -34.08,-8.42 -50.83,-6.76 -113.53,16.87 -153.98,4 -23.25,-7.4 -32.68,-19.83 -47.09,-36.06 -1.48,47.73 43.57,73.08 85.42,74.99 54.74,2.51 97.35,-14.73 140.15,19.09 33.99,26.86 48.43,72.57 29.58,115.36 -37.82,85.84 -181.03,45.39 -213.44,111.06 -12.18,24.69 3.82,44.32 19.37,53.51 70.57,41.68 225.67,-3.72 300.8,-34 7.32,-2.95 26.55,-8.36 30.83,-10.57 -2.83,-4.13 -17.69,-13.92 -24,-17.4 -30.02,-16.55 -56.92,8.93 -107.26,6.29 -25.68,-1.34 -48.14,-8.93 -75.11,-9.05 -20.77,-0.09 -58.64,3.41 -68.65,18.8 26.33,-4.34 36.37,-9.61 66.86,-7.75 22.77,1.39 44.13,5.79 66.67,8.29 69.97,7.75 99.46,-28.04 125.88,-1.02 -9.45,5.14 -56.62,18.16 -70.97,22.75 -59.62,19.05 -191.8,48.1 -239.85,11.1 -26.37,-20.31 -10.79,-43.22 9.72,-56.16 60.02,-37.86 161.38,-11.05 192.8,-91.33 20.73,-52.97 3.17,-93.55 37.69,-149.29 18.61,-30.05 38.92,-53.67 61.03,-80.1 107.64,-128.65 -39.24,-208.62 -31.9,-314.26 37.72,142.75 162.37,164.55 67.44,335.14 -28.47,51.17 -66.93,94.3 -70.21,168.16 -2.99,67.3 32.14,146.58 90.78,150.68 -0.39,-0.35 -1.01,-1.35 -1.23,-0.98l-24.48 -16.64c-59.38,-54.2 -64.3,-157.18 -25.47,-221.84 12,-19.97 21.23,-27.5 47.9,-36.45 69.95,-23.45 165.52,25.5 214.47,-21.3 -58.99,77.52 -141.2,3.61 -222.24,57.55 -67.84,45.15 -56.92,145.76 18.41,181.6 43.83,20.86 129.44,16.61 159.01,57.31 15.72,21.63 2.88,37.79 -12.99,46.4 -35.78,19.4 -152.86,11.49 -201.88,9.98 -24.44,-0.75 -47.9,2.35 -72.24,2.73 7,-5.24 17.18,-7.1 25.78,-9.8 67.46,-21.24 131.14,-55.57 204.36,-39.76 -18.71,-32.65 -118,-2.45 -145.57,6.83 -22.93,7.72 -44.07,16.64 -66.75,24.91 -20.33,7.41 -47.85,15.8 -63.99,26.08 49.68,3.33 104.59,-0.37 155.07,0.35 43.19,0.61 109.55,5.45 149.68,-3.76 57.13,-13.11 64.78,-53.61 23.47,-84.56 -29.48,-22.09 -81.81,-24.96 -121.83,-35.83 -96.04,-26.08 -112.13,-134.21 -31.85,-180.28 64.71,-37.13 142.59,16.01 194.03,-35.16 9.25,-9.2 31.1,-36.25 23,-51.6 -16.7,14.95 -15.5,26.23 -44.43,35.68 -43.35,14.15 -100.84,-8.26 -148.03,-4.88 -11.68,0.84 -22.84,2.86 -33.75,6.43 -11.03,3.61 -19.19,9.63 -28.56,12.33 2.63,-8.66 20.5,-35.88 26.52,-47.33 31.33,-59.6 42.98,-116.14 11.67,-176.65 -8.57,-16.57 -19.88,-29.49 -29.66,-43.65 -26.73,-38.71 -50.26,-78.84 -60.07,-126.87 -1.79,-8.76 -1.75,-25.83 -7.85,-32.58 -4.56,19.67 -7.77,27.9 -7.06,50.76 0.55,17.86 3.78,34.65 8.2,50.86 20.14,73.88 86.35,135.81 45.6,216.97 -5.02,10.01 -17.37,29.89 -24.05,34.34l-7.36 -16.59c-0.67,1.6 -0.68,0.72 -1.15,4.22 -2.19,16.25 11,11.69 -4.07,29.37 -6.87,8.07 -16.37,21.64 -24.31,25.22 -2.88,-8.25 -15.08,-28.72 -15.17,-31.03 -0.03,-0.7 6.74,-18.95 6.87,-39.79 16.95,-0.85 22.64,8.95 39.41,-6.23 28.74,-26.03 23.77,-102.86 -16.38,-109.85 -33.13,-5.77 -51.31,25.67 -52.03,56.92 -0.84,36.33 31.31,47.59 15.5,85.83 -18.11,-9.13 -37.39,-53.99 -40.81,-74.59 -13.03,-78.24 74.22,-145.9 61.49,-253.5 -0.87,-7.38 -1.74,-16.69 -7.84,-21.29 -3.74,5.77 -8.49,64.24 -37.35,112.6 -45.02,75.43 -98.66,117.39 -60.57,215.86 14.43,37.31 41.02,76 50.41,102z"/>
   <path class="fil1" d="M1471.25 1511.29c11.16,-3.75 31.81,6.74 18.8,23.31 -61.66,78.52 -54.59,-11.27 -18.8,-23.31zm673.75 -0.64c8.34,-2.15 30.88,5.9 18.5,22.61 -7.68,10.36 -17.16,22.08 -26.45,28.71 -32.67,23.3 -22.09,-43.59 7.96,-51.32zm-319.32 -0.17c8.14,-1.67 31.6,6.12 16.74,24.52 -7.12,8.81 -16.62,20.99 -25.86,27.34 -31.71,21.8 -20.62,-45.78 9.12,-51.86zm-140.19 2.05c3.18,-11.38 36.72,-62.01 44.86,-74.9 28.3,-44.81 23.31,-43.92 45.52,-44.48 9.08,-0.23 18.49,-1.19 27.45,0.11l-117.83 119.27zm79.62 -124.81c5.42,-11.66 14.83,-19.72 22.12,-28.87 13.69,-17.2 62.38,-68.87 80.51,-66.59 7.85,23.59 -48.77,81.84 -57.59,94.44l-45.04 1.02zm188.37 130.37c17.61,-47.94 91.45,-153.64 130.06,-191.07 6.95,-6.74 52.69,-50.86 61.9,-41.23 14.2,14.84 -80.02,118.8 -86.43,124.85l-52.41 55.74c-17.97,18.78 -34.48,34.37 -53.12,51.71zm-85.06 -12.67c-8.71,2.62 -5.42,4.38 -12.83,11.35 -12.61,-12.13 -15.87,-22.2 -39.09,-15.01 -14.55,4.5 -24.66,16.01 -30.2,28.45 -7.6,17.08 -16.45,20.38 -26.98,29.87 -23.94,21.58 -56.15,29.39 -29.21,-7.23 5.1,-6.94 12.58,-13.44 10.11,-25.29 -28.12,-15.45 -59.47,13.28 -74.93,25.38 4.52,-21.91 20.56,-31.94 36.34,-45.11 20.78,-17.33 76.14,-72.39 96.25,-96.16 12.89,-15.24 11.57,-19.82 34.61,-18.3 21.49,1.42 49.42,2.28 62.34,20.27 15,20.9 36.57,-9.28 -17.53,-20.99 -18.21,-3.94 -37.74,-4.89 -56.86,-5.66 8.68,-13.55 76.98,-84.67 53.23,-105.81 -29.72,-5.84 -75.69,48.96 -88.55,60.93 -13.59,12.65 -23.69,25.05 -35.2,39.91 -7.01,9.05 -16.7,7.51 -28.14,8.35 -11.38,0.83 -25.24,2.83 -36.31,2.43 2.6,-6.91 18.39,-26.06 23.54,-33.35 5.45,-7.71 24.75,-27.55 5.41,-33.97 -15.65,8.18 -43.1,65.91 -51.87,69.57 -7.88,3.28 -107.51,0.57 -141.82,-21.64 -16.34,-10.57 -2.72,-35.27 -26.03,-21.4 -5.79,28.28 42.62,37.19 63.02,41.1 32.6,6.24 65.32,7.86 99.19,7.68 0.06,5.77 -44.53,72.66 -48.74,79.61 -15.44,25.5 -24.55,50 -33.57,65.43 -8.32,14.25 -86.98,91.66 -88.54,48.14 -0.81,-22.57 22.03,-47.65 33.74,-64.43 7.44,-10.67 4.39,-35.42 -14.28,-16.08l-3.23 2.96c-0.27,0.23 -0.78,0.67 -1.2,0.96 -5.3,-15.1 -20.58,-22.49 -40.86,-14.36 -30.38,12.18 -48.36,71.73 -11.68,71.3 14.25,-0.17 34.08,-17.13 37.52,-23.36 -11.18,20.13 -19.92,73.07 21.25,59.62 26.06,-8.51 42.16,-32.07 60.49,-46.85 -2.17,13.77 -6.53,23.62 -5.11,39.16 1.13,12.28 12.69,27.27 19.97,13.07l-9.24 -1.06c-4.78,-56.54 60.58,-148.2 92.12,-194.41 17.05,-24.98 8.99,-23.2 73.11,-25.31 -2.32,5.91 -3.35,6.63 -7.5,12.14 -3.17,4.21 -5.5,7.53 -8.24,11.88 -5.25,8.34 -10.88,16.18 -15.9,24.44l-57.79 99.81c-5.8,10.74 -26.27,42.56 -24.11,53.74 16.04,5.74 24.66,-13.93 32.51,-23.36 3.94,-4.73 7.32,-6.39 11.29,-10.66 6.17,-6.64 40.47,-40.26 50.9,-29.76 5.33,5.37 -11.12,17.84 -14,28.26 -4.17,15.07 3.69,26.85 17.63,26.64 20.29,-0.31 45.91,-29.12 57.49,-37.46 0.9,16.43 7.52,26.86 26.56,22.74 13.75,-2.98 21.65,-14.57 29.71,-20.08 -4.31,12.91 -10.9,24.83 -8.05,41.11 2.88,16.47 16.57,21.27 33.05,15.15 12.8,-4.75 23.42,-13.11 32.01,-21.14l27.43 -26.34c-6.29,86.71 64.03,42.56 89.29,5.6l4.33 14.83c12.61,35.4 74.4,-17.34 83.78,-29.02 3.52,4.93 3.78,11.97 8.19,15.93 15.77,14.15 41.24,-6.99 50.4,-17.16 -4.9,14.45 -15.79,38.01 -4.04,53.3 25.35,32.98 108.15,-59.08 113.08,-82.22l-39.23 44.46c-8.55,9.06 -32.06,31.42 -47.56,36.85 -34.3,12.01 -15.98,-32.65 -8.29,-45.07 11.29,-18.26 32.79,-36.28 20.27,-54 -10.13,0.26 -10.56,6.19 -17.29,10.93 -5.07,-7.21 -7.09,-12.38 -15.65,-15.21 -8.65,-2.86 -19.45,-1.36 -27.19,1.97 -34.21,14.72 -5.18,23.72 -61.63,64.88 -7.23,5.27 -31.6,25.44 -41.84,17.98 -11.82,-15.91 30.62,-49.52 22.49,-68.26 -8.13,-3.01 -9.69,1.67 -14.5,7.24 -10.42,12.09 -20.54,31.77 -31.13,42.24 -8.76,8.66 -40.09,40.62 -57.54,38.74 -24.45,-2.63 -11.93,-59.34 -1.34,-71.96l25.17 -22.5c9.51,-8.2 16.15,-13.71 25.18,-24.34 0.27,-0.31 220.72,-210.16 144.97,-211.69 -36.34,-0.73 -93.25,66.1 -108.3,85.26 -34.31,43.68 -67.27,95.73 -93.08,148.83 -5.99,12.34 -8.68,22.56 -14.06,35.45 -4.84,11.6 -36.94,40.68 -48.16,49.01 -29.11,21.6 -51.45,13.23 -31.26,-25.81 10.98,-21.24 44.51,-52.88 21.71,-63.16z"/>
   <path class="fil0" d="M42.41 1645.83c8.4,-0.38 7.02,-2.62 10.34,-12.18 16.96,-48.79 16.07,-49.56 95.97,-54.62l162.12 -7.83c-1.2,0.68 -6.26,5.92 -8.48,7.69 -28.55,22.84 -37.18,30.74 -72.03,52.68 -43.17,27.18 -165.31,87.57 -210.14,45.1 -33.79,-32.01 0.97,-69.06 32.84,-78.9 -3.72,11.55 -22.85,37 -10.63,48.05zm563.13 -119.66c-6.61,11.27 -16.81,21.95 -24.97,30.31 -33.02,33.84 -34.62,-22.12 -6.99,-41.85 14.76,-10.54 28.41,-2.16 31.96,11.54zm-563.47 -162.66c10.73,-0.54 21.9,-9.67 26.11,-14.99 13.67,-17.25 6.03,-26.81 52.96,-62.56 106.89,-81.4 282.4,-108.94 306.11,25.99 16.79,95.58 -38.44,182.64 -101.83,246.03 -9.3,9.3 -13.37,7.38 -29.96,8.64 -49.6,3.76 -97.29,4.49 -146.75,7.06l-68.6 6.83c5.91,-9.95 11.89,-24.79 18.29,-36.91 35.04,-66.41 70.31,-154.86 109.56,-224.04 6.07,-10.7 18.34,-25.55 15.53,-38.67 -12.48,-0.76 -27.34,28.79 -35.28,42.77 -29.29,51.52 -52.58,104.49 -77.52,158.94 -7.41,16.19 -45.11,98.36 -52.84,104.77 -2.97,2.46 -21.32,10.73 -26.39,13.95 -56.12,35.72 -46.49,127.19 106.41,84.37 40.34,-11.3 76.98,-29.58 108.82,-48.81 40.12,-24.24 89.78,-67.6 89.89,-67.67 3.06,-1.77 54.74,-10.29 65.63,-13.39 36.36,-10.37 46.52,-22.51 54.35,-24.64 5.14,26.4 -9.78,29.32 -17.84,48.41 -7.84,18.56 -0.09,39.29 21.45,37.85 28.48,-1.9 62.66,-45.3 77.27,-59.91 1.76,2.68 5.41,23.1 30.13,15.24 11.77,-3.74 19.4,-14.01 26.77,-19.09 -4.3,14.37 -16.24,38.81 -1.98,53.2 14.08,14.21 39.19,-2.5 49.03,-9.82 12.65,-9.41 60.57,-54.68 62.71,-74.52 -6.7,7.72 -12.04,15.35 -18.97,22.91 -19.05,20.75 -39.35,47.11 -66.13,58.67 -12.65,5.46 -23.98,0.84 -22.69,-13.56 1.4,-15.62 19.93,-43.16 29.09,-55.31 8.01,-10.63 12.33,-14.81 3.85,-29.14 -9.67,-0.65 -5.24,-1.98 -16.64,10.65 -6.79,-5.94 -7.61,-14.32 -20.29,-16.27 -11.21,-1.73 -22.24,1.16 -29.85,6.66 -22.06,15.96 -16.56,29.92 -28.68,42.82 -8.37,8.91 -60.66,72.82 -80.78,60.68 -3.15,-4.19 -2.18,-0.2 -2.55,-7.56 -1.26,-24.86 31.23,-33.58 22.46,-65.66 -5.37,-19.64 2.08,-13.24 5.9,-24.13 -0.16,-4.16 -14.63,-20.04 -25.13,9.43 -8.52,23.9 -91.48,37.85 -108.39,38.03 5.04,-5.76 9.92,-10.91 15.4,-17.07 17.26,-19.43 26.78,-31.3 41.43,-53.87 55.2,-85.04 73.39,-220.5 -22.7,-267.58 -64.19,-31.46 -149.19,-8.24 -205.4,19.35 -35.23,17.29 -47.23,27.72 -75.88,50.61 -12.56,10.03 -54.89,49.11 -56.04,71.28z"/>
   <path class="fil0" d="M1037.7 426.47c0.47,309.35 251.63,562.7 566.72,562.05 309.12,-0.7 561.6,-253.79 561.13,-563.88 -0.19,-127.21 -43.07,-248.54 -115.92,-342.46 -19.56,-25.22 -52.1,-63.57 -75.08,-79.3l37.12 38.49c30.67,29.43 71.97,98.97 89.9,135.56 35.32,72.06 52.31,157.08 52.21,247.71 -0.42,391.42 -402.76,668.87 -783.54,499.87 -64.45,-28.6 -125.87,-76.22 -163.34,-115.3 -87.61,-91.4 -157.86,-216.89 -157.45,-399.23 0.34,-148.86 60.43,-287.26 160.79,-388.55 6.38,-6.44 13.76,-11.22 18.47,-18.6 -45.12,30.85 -106.88,118.42 -133.36,173.15 -35.83,74.05 -57.8,155.88 -57.66,250.5z"/>
   <path class="fil0" d="M2751.71 1542.08c12.86,2.75 17.9,6.63 33.94,7.73 -4.6,16.19 -20.71,37.17 -37.36,39.35 -29.71,3.89 0.4,-39.61 3.42,-47.08zm329.68 23.11c-9.72,-25.19 18.33,-69.6 41.94,-50.96 12.5,9.87 3.7,19.28 -8.24,32.1 -7.56,8.12 -17.51,22.51 -33.71,18.86zm-334.97 -42.24c-6.33,-40.08 51.79,-29.27 41.26,19.71 -0.47,0.28 -1.23,0 -1.53,0.62 -1.06,2.23 -12.31,0.63 -15.98,-0.29 -5.44,-1.37 -10.28,-3.71 -13.73,-6.21 4.29,-6.99 9.32,-10.86 7.37,-22.26 -12.51,0.35 -7.35,2.97 -17.4,8.44zm220.67 -10.2c7.05,-18.2 67.46,-109.46 78.08,-124.31 9.78,-13.67 90.46,-110.02 104.51,-94.95 15.28,16.38 -75.16,111.4 -81.08,118.35l-24.23 25.27c-15.56,15.44 -62.5,65.05 -77.28,75.65zm-92.59 0.95c-0.87,10.58 -9.15,13.87 -10.37,22.9 9.72,-3.05 24.9,-15.79 21.42,-30.35 -19.39,-8.76 -37.91,5.68 -48.26,15.23 -3.43,3.17 -5.15,4.62 -8.39,8.15 -3.42,3.72 -5.21,6.91 -7.68,8.8 -5.54,4.23 -20.25,6.69 -28.08,5.61 11.31,-56.93 -52.22,-67.6 -56.83,-33.81 -1.31,9.58 1.26,10.56 3.21,17.62 1.8,6.51 -2.21,8.53 -5.82,14.68 -37.57,64.08 34.03,72.46 57.52,7.88l25.64 -4.35c-3.78,12.82 -13.02,30.71 -2.41,44.25 8.25,10.52 26.07,11.31 41.8,7.05 13.49,-3.66 26.65,-11.02 36.01,-17.23l30.86 -22.71c-3.55,11.6 -18.8,28.74 -16.02,39.03 9.03,12.93 33.83,-24.85 42.85,-33.78 6.31,-6.25 36.47,-35.28 51.77,-29.71 0.83,1.76 1.23,0.47 0.82,4.03 -0.8,6.99 -11.28,10.84 -14.92,24.86 -8.72,33.58 29.04,35.44 63.43,-0.76 4.71,-4.96 5.18,-7.66 11.77,-10.3 0.87,16.6 7.52,26.81 26.24,22.86 13.82,-2.92 21.85,-13.98 29.86,-19.82 -3.9,14.48 -16.77,40.44 -1.21,54.04 29.49,25.77 109.24,-65.55 110.95,-85.07 -4.48,3.88 -5.3,6.34 -8.91,10.85 -16.61,20.75 -52.97,60.78 -76.21,70.58 -11.7,4.93 -23.01,1.38 -22.77,-11.88 0.27,-14.84 19.51,-44.5 28.46,-55.86 8.36,-10.62 13.48,-16.14 4.69,-30.43 -10.93,-0.46 -4.48,-1.14 -16.82,10.77 -10.54,-10.36 -13.05,-22.52 -39.05,-14.92 -28.14,8.23 -18.09,25.71 -57.05,58.36 -34.71,29.09 -51.6,21.59 -29.25,-7.26 5.89,-7.6 12.81,-13.65 10.34,-25.86 -31.12,-15.22 -57.57,14.64 -75.17,25.99 8.46,-29.12 28.14,-37.98 56.45,-63.53 5.34,-4.81 9.08,-10.03 14.29,-15 39.53,-37.76 99.77,-100.7 128.1,-145.04 7.94,-12.42 19.26,-28.35 13.71,-46.02 -21.65,-11.36 -50.82,19.23 -62.38,28.53 -19.37,15.6 -52.98,54.14 -69.38,75.42 -7.44,9.66 -13.79,18.81 -20.72,28.75 -23.65,33.96 -35.59,57.1 -55.68,91.01 -19.94,33.66 -7.98,26.1 -43.56,53.56 -8.92,6.88 -18.34,13.44 -29.67,19.82 -19.69,11.07 -65.83,24.24 -52.15,-17.34 7.15,-21.74 30.72,-48.52 48.57,-49.58z"/>
   <path class="fil1" d="M2471.88 1512.12c73.45,3.08 199.7,-45.18 250.87,-75.8 50.94,-30.47 105.85,-80.11 93.26,-146.24 -13.08,-68.69 -90.31,-87.33 -160.59,-75.22 -46.16,7.95 -84.5,24.43 -120.65,42.71 -60.07,30.38 -138.28,97.3 -164.4,160.14 -3.47,8.36 -6.28,32.74 9.74,22.88 6.42,-3.95 8.77,-19.41 12.17,-28.56 7.7,-20.71 18.36,-35.79 29.58,-51.03 20.79,-28.26 53.28,-56.67 85.1,-78.06 179.26,-120.5 328.15,-57.97 288.79,57.83 -22.72,66.85 -123.68,114.38 -187.52,136.86 -27.68,9.75 -101.33,31.05 -132.07,27.43 28.88,-48.3 52.9,-91.19 86.07,-137.55 9.34,-13.05 31.7,-38.7 24.83,-46.39 -2.93,-2.49 -0.8,-4.04 -8.45,-1.81 -1.91,0.56 -4.88,3.32 -5.56,4.01 -3.79,3.88 -4.9,6.31 -8,10.35 -53.69,69.86 -116.65,176.55 -150.05,256.91 -3.92,9.44 -45.9,114.38 -18.37,108.52 3.28,-1.66 3.38,-7.14 4.25,-12.62 6.13,-38.94 43.22,-130.66 60.77,-157.62 9.82,15.92 13.53,23.73 24.43,37.79 52.85,68.15 147.38,122.65 237.75,129.41 16.14,1.21 47.42,4.8 49.81,-8.67 -11.79,-7.2 -48.38,7.21 -108.08,-8.8 -54.75,-14.68 -113.79,-53.12 -150.68,-91.24 -9.63,-9.96 -47.86,-50.32 -43,-75.24z"/>
   <path class="fil0" d="M1289.23 1696.38c22.55,-51 42.16,-104.51 66.83,-154.55 46.93,-95.18 102.66,-195.23 176.24,-267.39 23.36,-22.91 77.55,-76.1 116.25,-76.1 14.72,0 7.49,5.11 14.72,11.89 17.46,-6.1 3.32,-22.81 -23.23,-16.91 -13.47,2.99 -28.47,10.17 -39.02,16.03 -39.79,22.12 -87.27,74.21 -115.75,107.9 -82.91,98.11 -146.48,234.34 -195.18,362.03 -12.88,-112.55 -16.43,-211.71 -0.57,-323.22 1.83,-12.85 12.88,-77.01 11.6,-87.83 -4.17,-35.43 -56.3,38.33 -61.53,47.16 -14.05,23.71 -26.89,47.18 -39.83,73.8 -12.53,25.81 -23.96,51.46 -36.29,77.36 -28.76,60.42 -60.01,130.09 -105.42,178.74 -10.71,11.48 -18.08,18.56 -28.38,28.44 -16.63,15.96 -42.3,35.15 -72.47,41.26 -69.82,14.13 -66.42,-20.39 -92.23,-15.24 -5.94,27.65 60.66,27.28 85.46,22.9 125.89,-22.25 199.89,-206.19 247.83,-314.78 18.48,-41.86 58.13,-120.44 86.61,-136.07 -1.18,15.5 -5.82,35.12 -8.51,50.93 -8.71,51.24 -15.21,111.33 -13.63,163.1 0.98,32.1 10.96,197.89 26.5,210.54z"/>
   <path class="fil0" d="M1730.91 334.7c11.61,-9.3 21.2,-37.31 23.4,-56.92 9.18,-81.64 -70.77,-132.09 -83.84,-163.25l69.2 26.46c46.63,19.78 88.91,58 69.39,112.52 -4.8,13.4 -10.66,21.26 -17.67,29.98 -9.76,12.14 -20.22,19.81 -21.72,24.91 50.49,-20.38 110.47,-124.38 -37.52,-180.1l-60.36 -22.1c-8.87,-3.5 -12.91,-7.54 -19.74,-9.93 9.95,42.72 87.46,93.36 92.75,165.62 2.21,30.16 -7.75,48.6 -13.89,72.81z"/>
   <path class="fil0" d="M1434.33 307.17c-3.94,-5.69 -26.29,-19.23 -40.34,-53.37 -11.36,-27.61 -6.31,-54.61 9.58,-73.96 13.51,-16.45 31.09,-27.54 57.11,-38.2 16,-6.56 57.13,-18.86 67.8,-25.72 -0.78,7.11 -50.95,58.91 -67.97,93.39 -10.17,20.6 -15.37,41.69 -10.7,67.47 3.56,19.68 14.71,46.64 25.93,55.85 -4.12,-24.12 -37.54,-68.21 2.76,-134.72 14.88,-24.56 62.54,-73.46 69.67,-101.45 -6.18,2.23 -11.73,8.47 -36.36,17.48 -57.74,21.15 -157.84,45.17 -130.83,136.3 6.97,23.53 33.94,51.02 53.35,56.92z"/>
   <path class="fil1" d="M1311.17 312.91c3.66,3.24 6.8,10.91 10.2,15.31 29.57,38.25 74.06,33.82 113.17,42.73 7.6,1.73 13.04,3.19 19.19,7.4 0.32,0.22 0.87,0.63 1.27,0.99 -21.79,0.94 -34.69,2.8 -55.04,7.71 -15.51,3.74 -37.83,8.51 -53.76,4.26 -33.27,-8.88 -50.28,-38.9 -35.02,-78.39zm194.63 89.63c-4.26,-9.42 -29.28,-23.84 -43.1,-30.52 -45.9,-22.17 -97.06,-7.43 -134.86,-48.41 -6.37,-6.91 -6.65,-10.26 -10.28,-17.23l-4.64 -6.4c-13.93,14.11 -22.79,45.2 -11.94,68.7 8.46,18.34 27.44,32.33 54.35,34.92 43.41,4.18 69.66,-23.92 116.72,-13.43 14.1,3.14 23.36,9.84 33.75,12.36z"/>
   <path class="fil1" d="M1749.29 378.91c14.63,-10.86 63.35,-13.94 84.5,-19.94 46.37,-13.17 49.3,-39.14 56.32,-45.99 18.96,37.31 -0.12,70.8 -34.75,78.4 -19.63,4.31 -35.25,-0.58 -53.05,-5.25 -19.92,-5.23 -32.28,-4.95 -53.02,-7.22zm-46.18 21.97c19.85,-5.21 30.14,-19.14 72.96,-10.45 25.01,5.08 48.02,15.62 75.47,13.18 53.93,-4.78 69.51,-62.26 42.21,-97.81 -4.42,-5.76 -1.3,-3.6 -7,-5.44 -8.59,21.38 -14.26,28.87 -30.2,39.06 -30.9,19.75 -67.36,12.89 -110.77,32.25 -15.3,6.82 -35.71,16.13 -42.67,29.2z"/>
   <path class="fil0" d="M1729.68 360.38c20.32,-19.26 43.94,-33.93 67.28,-51.16 21.53,-15.9 19.4,-17.63 31.84,-28.69 16.63,-14.8 16.11,-20.88 23.19,-31.95 0.16,-0.25 0.73,-0.44 0.85,-1.07 0.12,-0.63 0.55,-0.73 0.89,-1.03 -1.33,87.89 -57.7,95.4 -124.04,113.9zm-19.3 14.45c19.47,-5.38 21.13,-10.4 58.53,-18.55 40.53,-8.83 76.39,-18.87 90.32,-65.58 5.55,-18.62 6.68,-49.86 -6.74,-63.13 -22.21,48.52 -23.75,44.22 -67.01,77.47 -20.8,15.99 -63.99,40.9 -75.09,69.79z"/>
   <path class="fil0" d="M1353.34 256.06c22.01,40.08 78.13,68.06 111.48,93.66l6.03 5.33c0.22,0.23 0.79,1.41 0.95,1.1 0.16,-0.32 0.65,0.73 0.94,1.12 -67.24,-11.67 -125.96,-31.25 -125.81,-111.36 0.38,0.41 0.8,0.98 1.05,1.32l5.35 8.83zm144.72 119c-5.44,-22.8 -58.29,-53.47 -79.57,-68.8 -36.37,-26.21 -53.9,-37.13 -69.07,-75.73l-1.09 -2.46c-0.11,-0.26 -0.34,-0.82 -0.58,-1.19 -16.44,17.01 -16.12,76.98 29.78,109.36 25.55,18.03 60.13,17.45 92.05,27.08 12.11,3.65 18.96,8.06 28.48,11.75z"/>
   <path class="fil0" d="M1338.65 470.99c56.67,6.02 83.55,-21.52 129.27,-1.36 -10.63,4.62 -21.31,5.93 -32.83,11.17 -10.3,4.68 -20.49,10.86 -31.49,14.26 -28.69,8.86 -57.54,-7.5 -64.95,-24.07zm-12.67 -10.09c3.26,16.44 15.64,30.4 25.2,37.31 14.69,10.62 30.82,13.62 51.02,8.33 39.34,-10.3 44.35,-35.5 94.07,-27.14 -8.91,-15.66 -52.54,-27 -78.3,-24.6 -43.16,4.01 -42,15.81 -92,6.11z"/>
   <path class="fil0" d="M1733.99 470.46l28.02 -7.56c39.8,-4.02 52.8,13.53 99.46,8.53 -8.98,18.56 -33.47,30.45 -62.03,23.95 -11.44,-2.6 -21.09,-7.89 -30.99,-12.94 -13.68,-6.98 -21.22,-7.13 -34.45,-11.98zm-29.85 8.59c16.5,1.04 20.87,-9.11 51.3,7.22 26.72,14.34 56.79,36.53 92.12,12.82 10.26,-6.88 23.4,-20.26 26.79,-36.53 -21.05,1.35 -25,4.8 -47.93,0.34 -14.54,-2.83 -29.76,-7.05 -44.47,-8.27 -27.41,-2.27 -64.25,9.61 -77.81,24.42z"/>
  </g>
 </g>
</svg>
